<svg width="139" height="26" viewBox="0 0 139 26" fill="none" xmlns="http://www.w3.org/2000/svg">
<rect width="139" height="26" rx="13" fill="#436D7C"/>
<path d="M49.6665 18.6182H46.1349V7.70907H49.7783C50.8472 7.70907 51.7652 7.92747 52.5322 8.36426C53.2993 8.7975 53.887 9.42072 54.2954 10.2339C54.7073 11.0436 54.9133 12.0148 54.9133 13.1476C54.9133 14.284 54.7055 15.2606 54.2901 16.0773C53.8781 16.8941 53.2815 17.5226 52.5003 17.963C51.719 18.3998 50.7744 18.6182 49.6665 18.6182ZM47.7808 17.18H49.5759C50.4069 17.18 51.0976 17.0237 51.648 16.7112C52.1984 16.3952 52.6104 15.9388 52.8838 15.3422C53.1572 14.7421 53.294 14.0106 53.294 13.1476C53.294 12.2918 53.1572 11.5656 52.8838 10.969C52.6139 10.3724 52.2109 9.91966 51.6746 9.61071C51.1384 9.30176 50.4726 9.14728 49.6771 9.14728H47.7808V17.18ZM60.3585 18.7833C59.5524 18.7833 58.8581 18.6111 58.2758 18.2666C57.6969 17.9186 57.2495 17.4303 56.9334 16.8018C56.6209 16.1697 56.4647 15.4292 56.4647 14.5805C56.4647 13.7425 56.6209 13.0038 56.9334 12.3646C57.2495 11.7254 57.6898 11.2265 58.2545 10.8678C58.8226 10.5091 59.4867 10.3298 60.2466 10.3298C60.7083 10.3298 61.1557 10.4062 61.589 10.5589C62.0222 10.7116 62.4111 10.9513 62.7555 11.278C63.1 11.6047 63.3716 12.029 63.5705 12.551C63.7694 13.0695 63.8688 13.6998 63.8688 14.442V15.0067H57.3649V13.8135H62.3081C62.3081 13.3944 62.2229 13.0233 62.0524 12.7002C61.8819 12.3735 61.6422 12.116 61.3333 11.9278C61.0279 11.7396 60.6692 11.6455 60.2573 11.6455C59.8099 11.6455 59.4192 11.7556 59.0854 11.9758C58.7552 12.1924 58.4995 12.4765 58.3184 12.828C58.1408 13.176 58.052 13.5542 58.052 13.9626V14.8948C58.052 15.4417 58.1479 15.9069 58.3397 16.2904C58.535 16.6739 58.8067 16.9669 59.1547 17.1693C59.5027 17.3682 59.9093 17.4676 60.3745 17.4676C60.6763 17.4676 60.9515 17.425 61.2001 17.3398C61.4487 17.251 61.6635 17.1196 61.8447 16.9456C62.0258 16.7716 62.1643 16.5567 62.2601 16.301L63.7676 16.5727C63.6469 17.0166 63.4302 17.4055 63.1177 17.7393C62.8088 18.0695 62.4199 18.327 61.9512 18.5116C61.486 18.6927 60.9551 18.7833 60.3585 18.7833ZM69.4552 10.4363V11.7148H64.9861V10.4363H69.4552ZM66.1846 8.47612H67.7773V16.2158C67.7773 16.5248 67.8234 16.7574 67.9158 16.9136C68.0081 17.0663 68.1271 17.1711 68.2727 17.2279C68.4218 17.2812 68.5834 17.3078 68.7574 17.3078C68.8852 17.3078 68.9971 17.2989 69.093 17.2812C69.1888 17.2634 69.2634 17.2492 69.3167 17.2385L69.6043 18.5542C69.512 18.5898 69.3806 18.6253 69.2102 18.6608C69.0397 18.6998 68.8266 18.7211 68.571 18.7247C68.1519 18.7318 67.7613 18.6572 67.3991 18.501C67.0369 18.3447 66.7439 18.1032 66.5202 17.7765C66.2964 17.4498 66.1846 17.0397 66.1846 16.5461V8.47612ZM73.598 18.7993C73.0796 18.7993 72.6108 18.7034 72.1918 18.5116C71.7727 18.3163 71.4407 18.034 71.1957 17.6647C70.9542 17.2954 70.8335 16.8426 70.8335 16.3064C70.8335 15.8447 70.9222 15.4648 71.0998 15.1665C71.2774 14.8682 71.5171 14.632 71.8189 14.458C72.1208 14.284 72.4581 14.1526 72.831 14.0638C73.2039 13.9751 73.5838 13.9076 73.9709 13.8614C74.461 13.8046 74.8587 13.7584 75.1641 13.7229C75.4695 13.6839 75.6914 13.6217 75.8299 13.5365C75.9684 13.4513 76.0377 13.3128 76.0377 13.121V13.0837C76.0377 12.6185 75.9063 12.2581 75.6435 12.0024C75.3843 11.7467 74.9972 11.6189 74.4823 11.6189C73.946 11.6189 73.5235 11.7378 73.2145 11.9758C72.9091 12.2101 72.6978 12.4711 72.5806 12.7588L71.0838 12.4179C71.2614 11.9207 71.5206 11.5194 71.8615 11.214C72.206 10.9051 72.6019 10.6814 73.0494 10.5429C73.4968 10.4008 73.9673 10.3298 74.461 10.3298C74.7877 10.3298 75.1339 10.3689 75.4997 10.447C75.869 10.5216 76.2134 10.6601 76.533 10.8625C76.8562 11.0649 77.1208 11.3543 77.3267 11.7307C77.5327 12.1036 77.6357 12.5883 77.6357 13.1849V18.6182H76.0803V17.4996H76.0164C75.9134 17.7055 75.7589 17.9079 75.5529 18.1068C75.347 18.3057 75.0824 18.4708 74.7593 18.6022C74.4361 18.7336 74.049 18.7993 73.598 18.7993ZM73.9443 17.5209C74.3846 17.5209 74.761 17.4339 75.0735 17.2599C75.3896 17.0858 75.6293 16.8586 75.7926 16.578C75.9595 16.2939 76.043 15.9903 76.043 15.6672V14.6125C75.9862 14.6693 75.8761 14.7226 75.7127 14.7723C75.5529 14.8184 75.37 14.8593 75.1641 14.8948C74.9581 14.9268 74.7575 14.9569 74.5622 14.9854C74.3668 15.0102 74.2035 15.0315 74.0721 15.0493C73.7632 15.0883 73.4808 15.154 73.2252 15.2464C72.973 15.3387 72.7706 15.4719 72.6179 15.6459C72.4688 15.8163 72.3942 16.0436 72.3942 16.3277C72.3942 16.7219 72.5398 17.0202 72.831 17.2226C73.1222 17.4214 73.4933 17.5209 73.9443 17.5209ZM79.757 18.6182V10.4363H81.3497V18.6182H79.757ZM80.5614 9.17392C80.2844 9.17392 80.0464 9.08159 79.8476 8.89693C79.6523 8.70872 79.5546 8.485 79.5546 8.22576C79.5546 7.96298 79.6523 7.73926 79.8476 7.5546C80.0464 7.36639 80.2844 7.27228 80.5614 7.27228C80.8384 7.27228 81.0745 7.36639 81.2698 7.5546C81.4687 7.73926 81.5681 7.96298 81.5681 8.22576C81.5681 8.485 81.4687 8.70872 81.2698 8.89693C81.0745 9.08159 80.8384 9.17392 80.5614 9.17392ZM85.0851 7.70907V18.6182H83.4924V7.70907H85.0851ZM93.3588 12.4339L91.9152 12.6895C91.8549 12.5049 91.759 12.3291 91.6276 12.1622C91.4998 11.9953 91.3257 11.8586 91.1056 11.752C90.8854 11.6455 90.6102 11.5922 90.2799 11.5922C89.8289 11.5922 89.4525 11.6934 89.1507 11.8959C88.8488 12.0947 88.6979 12.3522 88.6979 12.6682C88.6979 12.9417 88.7991 13.1618 89.0015 13.3287C89.2039 13.4956 89.5306 13.6324 89.9816 13.7389L91.2814 14.0372C92.0342 14.2112 92.5953 14.4793 92.9646 14.8415C93.3339 15.2037 93.5186 15.6743 93.5186 16.2531C93.5186 16.7432 93.3765 17.18 93.0924 17.5635C92.8119 17.9434 92.4195 18.2417 91.9152 18.4584C91.4145 18.675 90.8339 18.7833 90.1734 18.7833C89.2572 18.7833 88.5097 18.588 87.9309 18.1974C87.352 17.8032 86.9969 17.2439 86.8655 16.5194L88.4049 16.2851C88.5008 16.6863 88.6979 16.99 88.9962 17.1959C89.2945 17.3983 89.6833 17.4996 90.1627 17.4996C90.6848 17.4996 91.102 17.3912 91.4145 17.1746C91.727 16.9545 91.8833 16.6863 91.8833 16.3703C91.8833 16.1146 91.7874 15.8998 91.5956 15.7258C91.4074 15.5518 91.118 15.4204 90.7274 15.3316L89.3424 15.028C88.5789 14.854 88.0143 14.577 87.6485 14.197C87.2863 13.817 87.1052 13.3358 87.1052 12.7535C87.1052 12.2705 87.2402 11.8479 87.51 11.4857C87.7799 11.1235 88.1528 10.8412 88.6287 10.6388C89.1045 10.4328 89.6496 10.3298 90.264 10.3298C91.1482 10.3298 91.8442 10.5216 92.352 10.9051C92.8598 11.2851 93.1954 11.7947 93.3588 12.4339Z" fill="white"/>
<rect width="139" height="26" rx="13" fill="#436D7C"/>
<path d="M24.8866 6.9818V18.6182H23.273L17.3582 10.0841H17.2502V18.6182H15.4946V6.9818H17.1196L23.04 15.5273H23.148V6.9818H24.8866ZM31.0727 18.7943C30.2128 18.7943 29.4723 18.6106 28.8511 18.2432C28.2337 17.872 27.7564 17.3511 27.4193 16.6807C27.0859 16.0064 26.9193 15.2166 26.9193 14.3113C26.9193 13.4174 27.0859 12.6295 27.4193 11.9477C27.7564 11.2659 28.2261 10.7337 28.8284 10.3511C29.4344 9.96854 30.1428 9.77726 30.9534 9.77726C31.4458 9.77726 31.9231 9.85869 32.3852 10.0216C32.8473 10.1845 33.2621 10.4401 33.6295 10.7886C33.9969 11.1371 34.2867 11.5898 34.4988 12.1466C34.7109 12.6996 34.817 13.372 34.817 14.1636V14.7659H27.8795V13.4932H33.1522C33.1522 13.0462 33.0613 12.6504 32.8795 12.3057C32.6977 11.9572 32.442 11.6826 32.1125 11.4818C31.7867 11.281 31.4041 11.1807 30.9647 11.1807C30.4875 11.1807 30.0708 11.2981 29.7147 11.5329C29.3625 11.764 29.0897 12.067 28.8965 12.442C28.7072 12.8132 28.6125 13.2166 28.6125 13.6523V14.6466C28.6125 15.2299 28.7147 15.7261 28.9193 16.1352C29.1276 16.5443 29.4174 16.8568 29.7886 17.0727C30.1598 17.2848 30.5935 17.3909 31.0897 17.3909C31.4117 17.3909 31.7053 17.3454 31.9704 17.2545C32.2356 17.1598 32.4647 17.0197 32.6579 16.8341C32.8511 16.6485 32.9988 16.4193 33.1011 16.1466L34.709 16.4363C34.5803 16.9098 34.3492 17.3246 34.0159 17.6807C33.6863 18.0329 33.2715 18.3076 32.7715 18.5045C32.2753 18.6977 31.709 18.7943 31.0727 18.7943ZM40.4633 18.7943C39.6035 18.7943 38.8629 18.6106 38.2417 18.2432C37.6243 17.872 37.147 17.3511 36.8099 16.6807C36.4766 16.0064 36.3099 15.2166 36.3099 14.3113C36.3099 13.4174 36.4766 12.6295 36.8099 11.9477C37.147 11.2659 37.6167 10.7337 38.219 10.3511C38.8251 9.96854 39.5334 9.77726 40.344 9.77726C40.8364 9.77726 41.3137 9.85869 41.7758 10.0216C42.2379 10.1845 42.6527 10.4401 43.0201 10.7886C43.3876 11.1371 43.6773 11.5898 43.8894 12.1466C44.1016 12.6996 44.2076 13.372 44.2076 14.1636V14.7659H37.2701V13.4932H42.5429C42.5429 13.0462 42.4519 12.6504 42.2701 12.3057C42.0883 11.9572 41.8326 11.6826 41.5031 11.4818C41.1773 11.281 40.7947 11.1807 40.3554 11.1807C39.8781 11.1807 39.4614 11.2981 39.1054 11.5329C38.7531 11.764 38.4804 12.067 38.2872 12.442C38.0978 12.8132 38.0031 13.2166 38.0031 13.6523V14.6466C38.0031 15.2299 38.1054 15.7261 38.3099 16.1352C38.5182 16.5443 38.808 16.8568 39.1792 17.0727C39.5504 17.2848 39.9841 17.3909 40.4804 17.3909C40.8023 17.3909 41.0959 17.3454 41.361 17.2545C41.6262 17.1598 41.8554 17.0197 42.0485 16.8341C42.2417 16.6485 42.3894 16.4193 42.4917 16.1466L44.0997 16.4363C43.9709 16.9098 43.7398 17.3246 43.4065 17.6807C43.0769 18.0329 42.6622 18.3076 42.1622 18.5045C41.666 18.6977 41.0997 18.7943 40.4633 18.7943ZM49.3596 18.7886C48.6551 18.7886 48.0263 18.6087 47.4733 18.2488C46.924 17.8852 46.4922 17.3682 46.1778 16.6977C45.8672 16.0235 45.7119 15.2148 45.7119 14.2716C45.7119 13.3284 45.8691 12.5216 46.1835 11.8511C46.5017 11.1807 46.9373 10.6674 47.4903 10.3113C48.0433 9.95529 48.6702 9.77726 49.371 9.77726C49.9126 9.77726 50.3483 9.86816 50.6778 10.05C51.0111 10.228 51.2687 10.4363 51.4505 10.675C51.6361 10.9136 51.7801 11.1238 51.8823 11.3057H51.9846V6.9818H53.6835V18.6182H52.0244V17.2602H51.8823C51.7801 17.4458 51.6323 17.6579 51.4392 17.8966C51.2498 18.1352 50.9884 18.3435 50.6551 18.5216C50.3217 18.6996 49.8899 18.7886 49.3596 18.7886ZM49.7346 17.3398C50.2233 17.3398 50.6361 17.211 50.9733 16.9534C51.3142 16.692 51.5717 16.3303 51.746 15.8682C51.924 15.406 52.013 14.8682 52.013 14.2545C52.013 13.6485 51.9259 13.1182 51.7517 12.6636C51.5774 12.2091 51.3217 11.8549 50.9846 11.6011C50.6475 11.3473 50.2308 11.2204 49.7346 11.2204C49.2233 11.2204 48.7971 11.353 48.4562 11.6182C48.1153 11.8833 47.8577 12.2451 47.6835 12.7034C47.513 13.1617 47.4278 13.6788 47.4278 14.2545C47.4278 14.8379 47.5149 15.3625 47.6892 15.8284C47.8634 16.2943 48.121 16.6636 48.4619 16.9363C48.8066 17.2053 49.2308 17.3398 49.7346 17.3398ZM62.648 12.0216L61.1082 12.2943C61.0438 12.0973 60.9415 11.9098 60.8014 11.7318C60.665 11.5538 60.4794 11.4079 60.2446 11.2943C60.0097 11.1807 59.7161 11.1238 59.3639 11.1238C58.8828 11.1238 58.4813 11.2318 58.1593 11.4477C57.8374 11.6598 57.6764 11.9345 57.6764 12.2716C57.6764 12.5632 57.7843 12.7981 58.0002 12.9761C58.2161 13.1541 58.5646 13.3 59.0457 13.4136L60.4321 13.7318C61.2351 13.9174 61.8336 14.2034 62.2275 14.5898C62.6215 14.9761 62.8184 15.478 62.8184 16.0954C62.8184 16.6182 62.6669 17.0841 62.3639 17.4932C62.0646 17.8985 61.6461 18.2166 61.1082 18.4477C60.5741 18.6788 59.9548 18.7943 59.2502 18.7943C58.273 18.7943 57.4756 18.586 56.8582 18.1693C56.2408 17.7488 55.862 17.1523 55.7218 16.3795L57.3639 16.1295C57.4661 16.5576 57.6764 16.8814 57.9946 17.1011C58.3127 17.317 58.7275 17.425 59.2389 17.425C59.7957 17.425 60.2408 17.3095 60.5741 17.0784C60.9074 16.8435 61.0741 16.5576 61.0741 16.2204C61.0741 15.9477 60.9718 15.7185 60.7673 15.5329C60.5665 15.3473 60.2578 15.2072 59.8411 15.1125L58.3639 14.7886C57.5495 14.603 56.9472 14.3076 56.5571 13.9023C56.1707 13.497 55.9775 12.9837 55.9775 12.3625C55.9775 11.8473 56.1215 11.3966 56.4093 11.0102C56.6972 10.6238 57.0949 10.3227 57.6025 10.1068C58.1101 9.8871 58.6915 9.77726 59.3468 9.77726C60.29 9.77726 61.0324 9.9818 61.5741 10.3909C62.1158 10.7962 62.4737 11.3398 62.648 12.0216ZM75.4036 10.0386C75.343 9.50074 75.093 9.08407 74.6536 8.78862C74.2143 8.48938 73.6612 8.33976 72.9946 8.33976C72.5173 8.33976 72.1044 8.41551 71.7559 8.56703C71.4074 8.71475 71.1366 8.9193 70.9434 9.18066C70.754 9.43824 70.6593 9.7318 70.6593 10.0613C70.6593 10.3379 70.7237 10.5765 70.8525 10.7773C70.9851 10.978 71.1574 11.1466 71.3696 11.2829C71.5855 11.4155 71.8165 11.5273 72.0627 11.6182C72.309 11.7053 72.5457 11.7773 72.773 11.8341L73.9093 12.1295C74.2805 12.2204 74.6612 12.3435 75.0514 12.4988C75.4415 12.6541 75.8033 12.8587 76.1366 13.1125C76.4699 13.3663 76.7389 13.6807 76.9434 14.0557C77.1518 14.4307 77.2559 14.8795 77.2559 15.4023C77.2559 16.0613 77.0855 16.6466 76.7446 17.1579C76.4074 17.6693 75.9169 18.0727 75.273 18.3682C74.6328 18.6636 73.8582 18.8113 72.9491 18.8113C72.0779 18.8113 71.3241 18.6731 70.6877 18.3966C70.0514 18.1201 69.5533 17.728 69.1934 17.2204C68.8336 16.7091 68.6347 16.103 68.5968 15.4023H70.3582C70.3923 15.8227 70.5286 16.1731 70.7673 16.4534C71.0097 16.7299 71.3184 16.9363 71.6934 17.0727C72.0722 17.2053 72.487 17.2716 72.9377 17.2716C73.434 17.2716 73.8752 17.1939 74.2616 17.0386C74.6518 16.8795 74.9586 16.6598 75.1821 16.3795C75.4055 16.0954 75.5173 15.764 75.5173 15.3852C75.5173 15.0405 75.4188 14.7583 75.2218 14.5386C75.0286 14.3189 74.7654 14.1371 74.4321 13.9932C74.1025 13.8492 73.7294 13.7223 73.3127 13.6125L71.9377 13.2375C71.0059 12.9837 70.2673 12.6106 69.7218 12.1182C69.1802 11.6257 68.9093 10.9742 68.9093 10.1636C68.9093 9.49316 69.0911 8.90794 69.4548 8.40794C69.8184 7.90794 70.3108 7.51968 70.9321 7.24316C71.5533 6.96286 72.254 6.82271 73.0343 6.82271C73.8222 6.82271 74.5173 6.96097 75.1196 7.23748C75.7256 7.514 76.2029 7.89468 76.5514 8.37953C76.8999 8.86059 77.0817 9.41362 77.0968 10.0386H75.4036ZM79.2176 18.6182V9.89089H80.9164V18.6182H79.2176ZM80.0755 8.5443C79.7801 8.5443 79.5263 8.44582 79.3142 8.24885C79.1058 8.04809 79.0017 7.80945 79.0017 7.53294C79.0017 7.25263 79.1058 7.014 79.3142 6.81703C79.5263 6.61627 79.7801 6.51589 80.0755 6.51589C80.371 6.51589 80.6229 6.61627 80.8312 6.81703C81.0433 7.014 81.1494 7.25263 81.1494 7.53294C81.1494 7.80945 81.0433 8.04809 80.8312 8.24885C80.6229 8.44582 80.371 8.5443 80.0755 8.5443ZM86.861 22.0727C86.1679 22.0727 85.5713 21.9818 85.0713 21.8C84.575 21.6182 84.1697 21.3776 83.8554 21.0784C83.541 20.7791 83.3061 20.4515 83.1508 20.0954L84.611 19.4932C84.7133 19.6598 84.8497 19.836 85.0201 20.0216C85.1944 20.211 85.4292 20.372 85.7247 20.5045C86.0239 20.6371 86.4084 20.7034 86.8781 20.7034C87.522 20.7034 88.0542 20.5462 88.4747 20.2318C88.8951 19.9212 89.1054 19.425 89.1054 18.7432V17.0273H88.9974C88.8951 17.2129 88.7474 17.4193 88.5542 17.6466C88.3648 17.8738 88.1035 18.0708 87.7701 18.2375C87.4368 18.4041 87.0031 18.4875 86.469 18.4875C85.7796 18.4875 85.1584 18.3265 84.6054 18.0045C84.0561 17.6788 83.6205 17.1996 83.2985 16.567C82.9804 15.9307 82.8213 15.1485 82.8213 14.2204C82.8213 13.2924 82.9785 12.497 83.2929 11.8341C83.611 11.1712 84.0466 10.6636 84.5997 10.3113C85.1527 9.95529 85.7796 9.77726 86.4804 9.77726C87.022 9.77726 87.4595 9.86816 87.7929 10.05C88.1262 10.228 88.3857 10.4363 88.5713 10.675C88.7607 10.9136 88.9065 11.1238 89.0088 11.3057H89.1338V9.89089H90.7985V18.8113C90.7985 19.5613 90.6243 20.1769 90.2758 20.6579C89.9273 21.139 89.4557 21.4951 88.861 21.7261C88.2701 21.9572 87.6035 22.0727 86.861 22.0727ZM86.844 17.0784C87.3326 17.0784 87.7455 16.9648 88.0826 16.7375C88.4235 16.5064 88.6811 16.1769 88.8554 15.7488C89.0334 15.317 89.1224 14.8 89.1224 14.1977C89.1224 13.6106 89.0353 13.0935 88.861 12.6466C88.6868 12.1996 88.4311 11.8511 88.094 11.6011C87.7569 11.3473 87.3402 11.2204 86.844 11.2204C86.3326 11.2204 85.9065 11.353 85.5656 11.6182C85.2247 11.8795 84.9671 12.2356 84.7929 12.6863C84.6224 13.1371 84.5372 13.6409 84.5372 14.1977C84.5372 14.7697 84.6243 15.2716 84.7985 15.7034C84.9728 16.1352 85.2304 16.4723 85.5713 16.7148C85.916 16.9572 86.3402 17.0784 86.844 17.0784ZM94.7758 13.4363V18.6182H93.0769V9.89089H94.7076V11.3113H94.8156C95.0163 10.8492 95.3307 10.478 95.7588 10.1977C96.1906 9.91741 96.7341 9.77726 97.3894 9.77726C97.9841 9.77726 98.505 9.90226 98.9519 10.1523C99.3989 10.3985 99.7455 10.7659 99.9917 11.2545C100.238 11.7432 100.361 12.3473 100.361 13.067V18.6182H98.6622V13.2716C98.6622 12.639 98.4974 12.1447 98.1679 11.7886C97.8383 11.4288 97.3857 11.2488 96.8099 11.2488C96.416 11.2488 96.0656 11.3341 95.7588 11.5045C95.4557 11.675 95.2152 11.925 95.0372 12.2545C94.8629 12.5803 94.7758 12.9742 94.7758 13.4363ZM102.639 18.6182V9.89089H104.338V18.6182H102.639ZM103.497 8.5443C103.202 8.5443 102.948 8.44582 102.736 8.24885C102.528 8.04809 102.424 7.80945 102.424 7.53294C102.424 7.25263 102.528 7.014 102.736 6.81703C102.948 6.61627 103.202 6.51589 103.497 6.51589C103.793 6.51589 104.045 6.61627 104.253 6.81703C104.465 7.014 104.571 7.25263 104.571 7.53294C104.571 7.80945 104.465 8.04809 104.253 8.24885C104.045 8.44582 103.793 8.5443 103.497 8.5443ZM108.323 13.4363V18.6182H106.624V9.89089H108.255V11.3113H108.362C108.563 10.8492 108.878 10.478 109.306 10.1977C109.737 9.91741 110.281 9.77726 110.936 9.77726C111.531 9.77726 112.052 9.90226 112.499 10.1523C112.946 10.3985 113.292 10.7659 113.539 11.2545C113.785 11.7432 113.908 12.3473 113.908 13.067V18.6182H112.209V13.2716C112.209 12.639 112.044 12.1447 111.715 11.7886C111.385 11.4288 110.933 11.2488 110.357 11.2488C109.963 11.2488 109.612 11.3341 109.306 11.5045C109.003 11.675 108.762 11.925 108.584 12.2545C108.41 12.5803 108.323 12.9742 108.323 13.4363ZM119.845 22.0727C119.152 22.0727 118.556 21.9818 118.056 21.8C117.559 21.6182 117.154 21.3776 116.84 21.0784C116.525 20.7791 116.29 20.4515 116.135 20.0954L117.595 19.4932C117.698 19.6598 117.834 19.836 118.005 20.0216C118.179 20.211 118.414 20.372 118.709 20.5045C119.008 20.6371 119.393 20.7034 119.862 20.7034C120.506 20.7034 121.039 20.5462 121.459 20.2318C121.88 19.9212 122.09 19.425 122.09 18.7432V17.0273H121.982C121.88 17.2129 121.732 17.4193 121.539 17.6466C121.349 17.8738 121.088 18.0708 120.755 18.2375C120.421 18.4041 119.987 18.4875 119.453 18.4875C118.764 18.4875 118.143 18.3265 117.59 18.0045C117.04 17.6788 116.605 17.1996 116.283 16.567C115.965 15.9307 115.806 15.1485 115.806 14.2204C115.806 13.2924 115.963 12.497 116.277 11.8341C116.595 11.1712 117.031 10.6636 117.584 10.3113C118.137 9.95529 118.764 9.77726 119.465 9.77726C120.006 9.77726 120.444 9.86816 120.777 10.05C121.111 10.228 121.37 10.4363 121.556 10.675C121.745 10.9136 121.891 11.1238 121.993 11.3057H122.118V9.89089H123.783V18.8113C123.783 19.5613 123.609 20.1769 123.26 20.6579C122.912 21.139 122.44 21.4951 121.845 21.7261C121.255 21.9572 120.588 22.0727 119.845 22.0727ZM119.828 17.0784C120.317 17.0784 120.73 16.9648 121.067 16.7375C121.408 16.5064 121.665 16.1769 121.84 15.7488C122.018 15.317 122.107 14.8 122.107 14.1977C122.107 13.6106 122.02 13.0935 121.845 12.6466C121.671 12.1996 121.415 11.8511 121.078 11.6011C120.741 11.3473 120.325 11.2204 119.828 11.2204C119.317 11.2204 118.891 11.353 118.55 11.6182C118.209 11.8795 117.951 12.2356 117.777 12.6863C117.607 13.1371 117.522 13.6409 117.522 14.1977C117.522 14.7697 117.609 15.2716 117.783 15.7034C117.957 16.1352 118.215 16.4723 118.556 16.7148C118.9 16.9572 119.325 17.0784 119.828 17.0784Z" fill="white"/>
</svg>
