<svg width="105" height="26" viewBox="0 0 105 26" fill="none" xmlns="http://www.w3.org/2000/svg">
<rect width="105" height="26" rx="13" fill="#D3F7B5"/>
<path d="M32.6499 18.6182H29.1183V7.70907H32.7618C33.8307 7.70907 34.7486 7.92747 35.5157 8.36426C36.2827 8.7975 36.8704 9.42072 37.2788 10.2339C37.6908 11.0436 37.8967 12.0148 37.8967 13.1476C37.8967 14.284 37.689 15.2606 37.2735 16.0773C36.8616 16.8941 36.265 17.5226 35.4837 17.963C34.7025 18.3998 33.7579 18.6182 32.6499 18.6182ZM30.7643 17.18H32.5594C33.3903 17.18 34.081 17.0237 34.6314 16.7112C35.1819 16.3952 35.5938 15.9388 35.8672 15.3422C36.1407 14.7421 36.2774 14.0106 36.2774 13.1476C36.2774 12.2918 36.1407 11.5656 35.8672 10.969C35.5974 10.3724 35.1943 9.91966 34.6581 9.61071C34.1219 9.30176 33.456 9.14728 32.6606 9.14728H30.7643V17.18ZM43.3419 18.7833C42.5358 18.7833 41.8416 18.6111 41.2592 18.2666C40.6804 17.9186 40.2329 17.4303 39.9169 16.8018C39.6044 16.1697 39.4481 15.4292 39.4481 14.5805C39.4481 13.7425 39.6044 13.0038 39.9169 12.3646C40.2329 11.7254 40.6733 11.2265 41.2379 10.8678C41.8061 10.5091 42.4701 10.3298 43.2301 10.3298C43.6917 10.3298 44.1392 10.4062 44.5724 10.5589C45.0056 10.7116 45.3945 10.9513 45.739 11.278C46.0834 11.6047 46.3551 12.029 46.5539 12.551C46.7528 13.0695 46.8522 13.6998 46.8522 14.442V15.0067H40.3483V13.8135H45.2915C45.2915 13.3944 45.2063 13.0233 45.0358 12.7002C44.8654 12.3735 44.6257 12.116 44.3167 11.9278C44.0113 11.7396 43.6527 11.6455 43.2407 11.6455C42.7933 11.6455 42.4027 11.7556 42.0689 11.9758C41.7386 12.1924 41.4829 12.4765 41.3018 12.828C41.1243 13.176 41.0355 13.5542 41.0355 13.9626V14.8948C41.0355 15.4417 41.1314 15.9069 41.3231 16.2904C41.5184 16.6739 41.7901 16.9669 42.1381 17.1693C42.4861 17.3682 42.8927 17.4676 43.3579 17.4676C43.6598 17.4676 43.935 17.425 44.1836 17.3398C44.4321 17.251 44.647 17.1196 44.8281 16.9456C45.0092 16.7716 45.1477 16.5567 45.2436 16.301L46.751 16.5727C46.6303 17.0166 46.4137 17.4055 46.1012 17.7393C45.7922 18.0695 45.4034 18.327 44.9346 18.5116C44.4694 18.6927 43.9385 18.7833 43.3419 18.7833ZM52.4386 10.4363V11.7148H47.9695V10.4363H52.4386ZM49.168 8.47612H50.7607V16.2158C50.7607 16.5248 50.8069 16.7574 50.8992 16.9136C50.9915 17.0663 51.1105 17.1711 51.2561 17.2279C51.4052 17.2812 51.5668 17.3078 51.7408 17.3078C51.8687 17.3078 51.9805 17.2989 52.0764 17.2812C52.1723 17.2634 52.2469 17.2492 52.3001 17.2385L52.5878 18.5542C52.4954 18.5898 52.364 18.6253 52.1936 18.6608C52.0231 18.6998 51.8101 18.7211 51.5544 18.7247C51.1354 18.7318 50.7447 18.6572 50.3825 18.501C50.0203 18.3447 49.7273 18.1032 49.5036 17.7765C49.2799 17.4498 49.168 17.0397 49.168 16.5461V8.47612ZM56.5815 18.7993C56.063 18.7993 55.5942 18.7034 55.1752 18.5116C54.7562 18.3163 54.4241 18.034 54.1791 17.6647C53.9376 17.2954 53.8169 16.8426 53.8169 16.3064C53.8169 15.8447 53.9057 15.4648 54.0832 15.1665C54.2608 14.8682 54.5005 14.632 54.8023 14.458C55.1042 14.284 55.4416 14.1526 55.8144 14.0638C56.1873 13.9751 56.5673 13.9076 56.9543 13.8614C57.4444 13.8046 57.8421 13.7584 58.1475 13.7229C58.4529 13.6839 58.6749 13.6217 58.8134 13.5365C58.9518 13.4513 59.0211 13.3128 59.0211 13.121V13.0837C59.0211 12.6185 58.8897 12.2581 58.6269 12.0024C58.3677 11.7467 57.9806 11.6189 57.4657 11.6189C56.9295 11.6189 56.5069 11.7378 56.1979 11.9758C55.8925 12.2101 55.6813 12.4711 55.5641 12.7588L54.0673 12.4179C54.2448 11.9207 54.5041 11.5194 54.845 11.214C55.1894 10.9051 55.5854 10.6814 56.0328 10.5429C56.4803 10.4008 56.9508 10.3298 57.4444 10.3298C57.7711 10.3298 58.1173 10.3689 58.4831 10.447C58.8524 10.5216 59.1969 10.6601 59.5165 10.8625C59.8396 11.0649 60.1042 11.3543 60.3102 11.7307C60.5161 12.1036 60.6191 12.5883 60.6191 13.1849V18.6182H59.0637V17.4996H58.9998C58.8968 17.7055 58.7423 17.9079 58.5364 18.1068C58.3304 18.3057 58.0658 18.4708 57.7427 18.6022C57.4195 18.7336 57.0325 18.7993 56.5815 18.7993ZM56.9277 17.5209C57.368 17.5209 57.7445 17.4339 58.057 17.2599C58.373 17.0858 58.6127 16.8586 58.7761 16.578C58.943 16.2939 59.0264 15.9903 59.0264 15.6672V14.6125C58.9696 14.6693 58.8595 14.7226 58.6962 14.7723C58.5364 14.8184 58.3535 14.8593 58.1475 14.8948C57.9416 14.9268 57.7409 14.9569 57.5456 14.9854C57.3503 15.0102 57.1869 15.0315 57.0555 15.0493C56.7466 15.0883 56.4643 15.154 56.2086 15.2464C55.9565 15.3387 55.7541 15.4719 55.6014 15.6459C55.4522 15.8163 55.3776 16.0436 55.3776 16.3277C55.3776 16.7219 55.5232 17.0202 55.8144 17.2226C56.1056 17.4214 56.4767 17.5209 56.9277 17.5209ZM62.7405 18.6182V10.4363H64.3332V18.6182H62.7405ZM63.5448 9.17392C63.2678 9.17392 63.0299 9.08159 62.831 8.89693C62.6357 8.70872 62.5381 8.485 62.5381 8.22576C62.5381 7.96298 62.6357 7.73926 62.831 7.5546C63.0299 7.36639 63.2678 7.27228 63.5448 7.27228C63.8218 7.27228 64.0579 7.36639 64.2533 7.5546C64.4521 7.73926 64.5515 7.96298 64.5515 8.22576C64.5515 8.485 64.4521 8.70872 64.2533 8.89693C64.0579 9.08159 63.8218 9.17392 63.5448 9.17392ZM68.0685 7.70907V18.6182H66.4758V7.70907H68.0685ZM76.3422 12.4339L74.8987 12.6895C74.8383 12.5049 74.7424 12.3291 74.611 12.1622C74.4832 11.9953 74.3092 11.8586 74.089 11.752C73.8688 11.6455 73.5936 11.5922 73.2634 11.5922C72.8124 11.5922 72.436 11.6934 72.1341 11.8959C71.8323 12.0947 71.6813 12.3522 71.6813 12.6682C71.6813 12.9417 71.7825 13.1618 71.985 13.3287C72.1874 13.4956 72.5141 13.6324 72.9651 13.7389L74.2648 14.0372C75.0176 14.2112 75.5787 14.4793 75.948 14.8415C76.3173 15.2037 76.502 15.6743 76.502 16.2531C76.502 16.7432 76.36 17.18 76.0759 17.5635C75.7953 17.9434 75.4029 18.2417 74.8987 18.4584C74.398 18.675 73.8173 18.7833 73.1568 18.7833C72.2406 18.7833 71.4931 18.588 70.9143 18.1974C70.3355 17.8032 69.9803 17.2439 69.849 16.5194L71.3884 16.2851C71.4843 16.6863 71.6813 16.99 71.9796 17.1959C72.2779 17.3983 72.6668 17.4996 73.1462 17.4996C73.6682 17.4996 74.0855 17.3912 74.398 17.1746C74.7105 16.9545 74.8667 16.6863 74.8667 16.3703C74.8667 16.1146 74.7708 15.8998 74.5791 15.7258C74.3909 15.5518 74.1014 15.4204 73.7108 15.3316L72.3259 15.028C71.5624 14.854 70.9977 14.577 70.632 14.197C70.2698 13.817 70.0887 13.3358 70.0887 12.7535C70.0887 12.2705 70.2236 11.8479 70.4935 11.4857C70.7634 11.1235 71.1362 10.8412 71.6121 10.6388C72.0879 10.4328 72.633 10.3298 73.2474 10.3298C74.1316 10.3298 74.8276 10.5216 75.3355 10.9051C75.8433 11.2851 76.1789 11.7947 76.3422 12.4339Z" fill="#1F4451"/>
<rect width="105" height="26" rx="13" fill="#D3F7B5"/>
<path d="M23.4061 11.2567H21.7442C21.6802 10.9015 21.5613 10.589 21.3873 10.3192C21.2133 10.0493 21.0002 9.82022 20.7481 9.63201C20.4959 9.4438 20.2136 9.30176 19.9011 9.20588C19.5922 9.11 19.2637 9.06206 18.9157 9.06206C18.2871 9.06206 17.7243 9.22008 17.2271 9.53613C16.7335 9.85218 16.3429 10.3156 16.0552 10.9264C15.7711 11.5372 15.6291 12.2829 15.6291 13.1636C15.6291 14.0514 15.7711 14.8007 16.0552 15.4115C16.3429 16.0223 16.7353 16.4839 17.2324 16.7964C17.7296 17.1089 18.2889 17.2652 18.9103 17.2652C19.2548 17.2652 19.5815 17.219 19.8905 17.1267C20.203 17.0308 20.4853 16.8905 20.7374 16.7059C20.9895 16.5212 21.2026 16.2957 21.3766 16.0294C21.5542 15.7595 21.6767 15.4506 21.7442 15.1025L23.4061 15.1079C23.3173 15.6441 23.1451 16.1377 22.8894 16.5887C22.6373 17.0361 22.3123 17.4232 21.9146 17.7499C21.5204 18.0731 21.0694 18.3234 20.5616 18.501C20.0538 18.6785 19.4998 18.7673 18.8997 18.7673C17.9551 18.7673 17.1135 18.5436 16.3748 18.0961C15.6362 17.6452 15.0538 17.0006 14.6277 16.1626C14.2051 15.3245 13.9938 14.3248 13.9938 13.1636C13.9938 11.9988 14.2069 10.9992 14.633 10.1647C15.0591 9.32662 15.6415 8.68386 16.3802 8.23642C17.1188 7.78542 17.9586 7.55993 18.8997 7.55993C19.4785 7.55993 20.0183 7.64338 20.519 7.81028C21.0233 7.97363 21.476 8.21511 21.8773 8.53471C22.2786 8.85076 22.6106 9.23784 22.8734 9.69593C23.1362 10.1505 23.3138 10.6707 23.4061 11.2567ZM28.6942 18.7833C27.9271 18.7833 27.2577 18.6075 26.686 18.2559C26.1143 17.9044 25.6704 17.4126 25.3543 16.7805C25.0383 16.1483 24.8802 15.4097 24.8802 14.5645C24.8802 13.7158 25.0383 12.9736 25.3543 12.338C25.6704 11.7023 26.1143 11.2087 26.686 10.8572C27.2577 10.5056 27.9271 10.3298 28.6942 10.3298C29.4612 10.3298 30.1306 10.5056 30.7023 10.8572C31.2741 11.2087 31.718 11.7023 32.034 12.338C32.3501 12.9736 32.5081 13.7158 32.5081 14.5645C32.5081 15.4097 32.3501 16.1483 32.034 16.7805C31.718 17.4126 31.2741 17.9044 30.7023 18.2559C30.1306 18.6075 29.4612 18.7833 28.6942 18.7833ZM28.6995 17.4463C29.1967 17.4463 29.6086 17.3149 29.9353 17.0521C30.262 16.7893 30.5035 16.4395 30.6597 16.0028C30.8195 15.566 30.8994 15.0848 30.8994 14.5592C30.8994 14.0372 30.8195 13.5578 30.6597 13.121C30.5035 12.6807 30.262 12.3273 29.9353 12.061C29.6086 11.7947 29.1967 11.6615 28.6995 11.6615C28.1988 11.6615 27.7833 11.7947 27.453 12.061C27.1263 12.3273 26.8831 12.6807 26.7233 13.121C26.567 13.5578 26.4889 14.0372 26.4889 14.5592C26.4889 15.0848 26.567 15.566 26.7233 16.0028C26.8831 16.4395 27.1263 16.7893 27.453 17.0521C27.7833 17.3149 28.1988 17.4463 28.6995 17.4463ZM34.2859 18.6182V10.4363H35.8146V11.768H35.9158C36.0863 11.317 36.3651 10.9655 36.7521 10.7133C37.1392 10.4577 37.6026 10.3298 38.1424 10.3298C38.6893 10.3298 39.1474 10.4577 39.5167 10.7133C39.8896 10.969 40.1648 11.3206 40.3423 11.768H40.4276C40.6229 11.3312 40.9336 10.9832 41.3597 10.724C41.7859 10.4612 42.2937 10.3298 42.8832 10.3298C43.6254 10.3298 44.2308 10.5624 44.6996 11.0276C45.1719 11.4928 45.408 12.1942 45.408 13.1317V18.6182H43.8154V13.2808C43.8154 12.7268 43.6644 12.3256 43.3626 12.077C43.0607 11.8284 42.7003 11.7041 42.2813 11.7041C41.7628 11.7041 41.3597 11.8639 41.0721 12.1835C40.7845 12.4996 40.6406 12.9062 40.6406 13.4033V18.6182H39.0533V13.1796C39.0533 12.7357 38.9148 12.3788 38.6378 12.1089C38.3608 11.839 38.0004 11.7041 37.5565 11.7041C37.2546 11.7041 36.9759 11.784 36.7202 11.9438C36.4681 12.1001 36.2639 12.3184 36.1076 12.599C35.9549 12.8795 35.8786 13.2045 35.8786 13.5738V18.6182H34.2859ZM47.5427 21.6863V10.4363H49.0981V11.7627H49.2313C49.3236 11.5922 49.4568 11.3952 49.6308 11.1714C49.8048 10.9477 50.0463 10.7524 50.3552 10.5855C50.6642 10.415 51.0725 10.3298 51.5804 10.3298C52.2409 10.3298 52.8304 10.4967 53.3488 10.8305C53.8673 11.1643 54.2739 11.6455 54.5686 12.2741C54.8669 12.9026 55.0161 13.659 55.0161 14.5432C55.0161 15.4275 54.8687 16.1856 54.574 16.8177C54.2792 17.4463 53.8744 17.931 53.3595 18.2719C52.8446 18.6093 52.2568 18.778 51.5963 18.778C51.0992 18.778 50.6926 18.6945 50.3765 18.5276C50.064 18.3607 49.819 18.1654 49.6414 17.9417C49.4639 17.718 49.3272 17.5191 49.2313 17.3451H49.1354V21.6863H47.5427ZM49.1034 14.5273C49.1034 15.1025 49.1869 15.6068 49.3538 16.04C49.5207 16.4733 49.7622 16.8124 50.0782 17.0574C50.3943 17.2989 50.7814 17.4197 51.2394 17.4197C51.7153 17.4197 52.113 17.2936 52.4326 17.0415C52.7522 16.7858 52.9937 16.4395 53.1571 16.0028C53.324 15.566 53.4074 15.0741 53.4074 14.5273C53.4074 13.9875 53.3257 13.5028 53.1624 13.0731C53.0026 12.6434 52.7611 12.3042 52.438 12.0557C52.1184 11.8071 51.7189 11.6828 51.2394 11.6828C50.7778 11.6828 50.3872 11.8018 50.0676 12.0397C49.7515 12.2776 49.5118 12.6096 49.3485 13.0358C49.1851 13.4619 49.1034 13.9591 49.1034 14.5273ZM58.3932 7.70907V18.6182H56.8005V7.70907H58.3932ZM64.0622 18.7833C63.256 18.7833 62.5618 18.6111 61.9794 18.2666C61.4006 17.9186 60.9531 17.4303 60.6371 16.8018C60.3246 16.1697 60.1683 15.4292 60.1683 14.5805C60.1683 13.7425 60.3246 13.0038 60.6371 12.3646C60.9531 11.7254 61.3935 11.2265 61.9581 10.8678C62.5263 10.5091 63.1904 10.3298 63.9503 10.3298C64.4119 10.3298 64.8594 10.4062 65.2926 10.5589C65.7259 10.7116 66.1147 10.9513 66.4592 11.278C66.8036 11.6047 67.0753 12.029 67.2742 12.551C67.473 13.0695 67.5725 13.6998 67.5725 14.442V15.0067H61.0685V13.8135H66.0117C66.0117 13.3944 65.9265 13.0233 65.756 12.7002C65.5856 12.3735 65.3459 12.116 65.0369 11.9278C64.7315 11.7396 64.3729 11.6455 63.9609 11.6455C63.5135 11.6455 63.1229 11.7556 62.7891 11.9758C62.4588 12.1924 62.2031 12.4765 62.022 12.828C61.8445 13.176 61.7557 13.5542 61.7557 13.9626V14.8948C61.7557 15.4417 61.8516 15.9069 62.0433 16.2904C62.2386 16.6739 62.5103 16.9669 62.8583 17.1693C63.2063 17.3682 63.6129 17.4676 64.0781 17.4676C64.38 17.4676 64.6552 17.425 64.9038 17.3398C65.1524 17.251 65.3672 17.1196 65.5483 16.9456C65.7294 16.7716 65.8679 16.5567 65.9638 16.301L67.4712 16.5727C67.3505 17.0166 67.1339 17.4055 66.8214 17.7393C66.5124 18.0695 66.1236 18.327 65.6548 18.5116C65.1896 18.6927 64.6587 18.7833 64.0622 18.7833ZM73.1588 10.4363V11.7148H68.6897V10.4363H73.1588ZM69.8882 8.47612H71.4809V16.2158C71.4809 16.5248 71.5271 16.7574 71.6194 16.9136C71.7117 17.0663 71.8307 17.1711 71.9763 17.2279C72.1255 17.2812 72.287 17.3078 72.461 17.3078C72.5889 17.3078 72.7007 17.2989 72.7966 17.2812C72.8925 17.2634 72.9671 17.2492 73.0203 17.2385L73.308 18.5542C73.2157 18.5898 73.0843 18.6253 72.9138 18.6608C72.7434 18.6998 72.5303 18.7211 72.2746 18.7247C71.8556 18.7318 71.4649 18.6572 71.1027 18.501C70.7405 18.3447 70.4475 18.1032 70.2238 17.7765C70.0001 17.4498 69.8882 17.0397 69.8882 16.5461V8.47612ZM78.359 18.7833C77.5529 18.7833 76.8587 18.6111 76.2763 18.2666C75.6975 17.9186 75.25 17.4303 74.934 16.8018C74.6215 16.1697 74.4652 15.4292 74.4652 14.5805C74.4652 13.7425 74.6215 13.0038 74.934 12.3646C75.25 11.7254 75.6904 11.2265 76.255 10.8678C76.8232 10.5091 77.4872 10.3298 78.2472 10.3298C78.7088 10.3298 79.1563 10.4062 79.5895 10.5589C80.0227 10.7116 80.4116 10.9513 80.756 11.278C81.1005 11.6047 81.3722 12.029 81.571 12.551C81.7699 13.0695 81.8693 13.6998 81.8693 14.442V15.0067H75.3654V13.8135H80.3086C80.3086 13.3944 80.2234 13.0233 80.0529 12.7002C79.8825 12.3735 79.6428 12.116 79.3338 11.9278C79.0284 11.7396 78.6698 11.6455 78.2578 11.6455C77.8104 11.6455 77.4198 11.7556 77.0859 11.9758C76.7557 12.1924 76.5 12.4765 76.3189 12.828C76.1413 13.176 76.0526 13.5542 76.0526 13.9626V14.8948C76.0526 15.4417 76.1484 15.9069 76.3402 16.2904C76.5355 16.6739 76.8072 16.9669 77.1552 17.1693C77.5032 17.3682 77.9098 17.4676 78.375 17.4676C78.6769 17.4676 78.9521 17.425 79.2007 17.3398C79.4492 17.251 79.6641 17.1196 79.8452 16.9456C80.0263 16.7716 80.1648 16.5567 80.2607 16.301L81.7681 16.5727C81.6474 17.0166 81.4308 17.4055 81.1183 17.7393C80.8093 18.0695 80.4205 18.327 79.9517 18.5116C79.4865 18.6927 78.9556 18.7833 78.359 18.7833ZM86.6993 18.778C86.0388 18.778 85.4493 18.6093 84.9309 18.2719C84.4159 17.931 84.0111 17.4463 83.7164 16.8177C83.4252 16.1856 83.2796 15.4275 83.2796 14.5432C83.2796 13.659 83.4269 12.9026 83.7217 12.2741C84.02 11.6455 84.4284 11.1643 84.9468 10.8305C85.4653 10.4967 86.053 10.3298 86.71 10.3298C87.2178 10.3298 87.6262 10.415 87.9351 10.5855C88.2476 10.7524 88.4891 10.9477 88.6595 11.1714C88.8336 11.3952 88.9685 11.5922 89.0644 11.7627H89.1603V7.70907H90.7529V18.6182H89.1975V17.3451H89.0644C88.9685 17.5191 88.83 17.718 88.6489 17.9417C88.4713 18.1654 88.2263 18.3607 87.9138 18.5276C87.6013 18.6945 87.1965 18.778 86.6993 18.778ZM87.0509 17.4197C87.509 17.4197 87.8961 17.2989 88.2121 17.0574C88.5317 16.8124 88.7732 16.4733 88.9365 16.04C89.1034 15.6068 89.1869 15.1025 89.1869 14.5273C89.1869 13.9591 89.1052 13.4619 88.9419 13.0358C88.7785 12.6096 88.5388 12.2776 88.2228 12.0397C87.9067 11.8018 87.5161 11.6828 87.0509 11.6828C86.5715 11.6828 86.172 11.8071 85.8524 12.0557C85.5328 12.3042 85.2913 12.6434 85.1279 13.0731C84.9681 13.5028 84.8882 13.9875 84.8882 14.5273C84.8882 15.0741 84.9699 15.566 85.1333 16.0028C85.2966 16.4395 85.5381 16.7858 85.8577 17.0415C86.1809 17.2936 86.5786 17.4197 87.0509 17.4197Z" fill="#1F4451"/>
</svg>
